<mxfile host="Electron" modified="2023-10-31T02:20:35.262Z" agent="Mozilla/5.0 (Windows NT 10.0; Win64; x64) AppleWebKit/537.36 (KHTML, like Gecko) draw.io/22.0.3 Chrome/114.0.5735.289 Electron/25.8.4 Safari/537.36" etag="pwr5ct4P2X8SRsgAfyAe" version="22.0.3" type="device">
  <diagram name="Page-1" id="97916047-d0de-89f5-080d-49f4d83e522f">
    <mxGraphModel dx="1423" dy="606" grid="1" gridSize="10" guides="1" tooltips="1" connect="1" arrows="1" fold="1" page="1" pageScale="1.5" pageWidth="1169" pageHeight="827" background="none" math="0" shadow="0">
      <root>
        <mxCell id="0" />
        <mxCell id="1" parent="0" />
        <mxCell id="kN04fG0RwE7gjRR_fKHr-55" value="Admin" style="rounded=1;fillColor=#10739E;strokeColor=none;shadow=1;gradientColor=none;fontStyle=1;fontColor=#FFFFFF;fontSize=14;" vertex="1" parent="1">
          <mxGeometry x="672" y="205.5" width="200" height="60" as="geometry" />
        </mxCell>
        <mxCell id="kN04fG0RwE7gjRR_fKHr-56" value="Quản lý dịch vụ" style="rounded=1;fillColor=#10739E;strokeColor=none;shadow=1;gradientColor=none;fontStyle=1;fontColor=#FFFFFF;fontSize=14;" vertex="1" parent="1">
          <mxGeometry x="662" y="345.5" width="220" height="60" as="geometry" />
        </mxCell>
        <mxCell id="kN04fG0RwE7gjRR_fKHr-57" value="Xem thông tin dịch vụ" style="rounded=1;fillColor=#10739E;strokeColor=none;shadow=1;gradientColor=none;fontStyle=1;fontColor=#FFFFFF;fontSize=14;" vertex="1" parent="1">
          <mxGeometry x="360" y="455.5" width="200" height="60" as="geometry" />
        </mxCell>
        <mxCell id="kN04fG0RwE7gjRR_fKHr-58" value="Cập nhật dịch vụ" style="rounded=1;fillColor=#10739E;strokeColor=none;shadow=1;gradientColor=none;fontStyle=1;fontColor=#FFFFFF;fontSize=14;" vertex="1" parent="1">
          <mxGeometry x="570" y="455.5" width="200" height="60" as="geometry" />
        </mxCell>
        <mxCell id="kN04fG0RwE7gjRR_fKHr-59" value="Quản lý loại dịch vụ" style="rounded=1;fillColor=#10739E;strokeColor=none;shadow=1;gradientColor=none;fontStyle=1;fontColor=#FFFFFF;fontSize=14;" vertex="1" parent="1">
          <mxGeometry x="890" y="455.5" width="200" height="60" as="geometry" />
        </mxCell>
        <mxCell id="kN04fG0RwE7gjRR_fKHr-60" value="" style="edgeStyle=elbowEdgeStyle;elbow=vertical;strokeWidth=4;endArrow=block;endFill=1;fontStyle=1;strokeColor=#23445D;" edge="1" parent="1" source="kN04fG0RwE7gjRR_fKHr-55" target="kN04fG0RwE7gjRR_fKHr-56">
          <mxGeometry x="22" y="165.5" width="100" height="100" as="geometry">
            <mxPoint x="22" y="265.5" as="sourcePoint" />
            <mxPoint x="122" y="165.5" as="targetPoint" />
          </mxGeometry>
        </mxCell>
        <mxCell id="kN04fG0RwE7gjRR_fKHr-61" value="" style="edgeStyle=elbowEdgeStyle;elbow=vertical;strokeWidth=4;endArrow=block;endFill=1;fontStyle=1;strokeColor=#23445D;" edge="1" parent="1" source="kN04fG0RwE7gjRR_fKHr-56" target="kN04fG0RwE7gjRR_fKHr-58">
          <mxGeometry x="22" y="165.5" width="100" height="100" as="geometry">
            <mxPoint x="22" y="265.5" as="sourcePoint" />
            <mxPoint x="122" y="165.5" as="targetPoint" />
          </mxGeometry>
        </mxCell>
        <mxCell id="kN04fG0RwE7gjRR_fKHr-62" value="" style="edgeStyle=elbowEdgeStyle;elbow=vertical;strokeWidth=4;endArrow=block;endFill=1;fontStyle=1;strokeColor=#23445D;" edge="1" parent="1" source="kN04fG0RwE7gjRR_fKHr-56" target="kN04fG0RwE7gjRR_fKHr-57">
          <mxGeometry x="22" y="165.5" width="100" height="100" as="geometry">
            <mxPoint x="22" y="265.5" as="sourcePoint" />
            <mxPoint x="122" y="165.5" as="targetPoint" />
          </mxGeometry>
        </mxCell>
        <mxCell id="kN04fG0RwE7gjRR_fKHr-63" value="" style="edgeStyle=elbowEdgeStyle;elbow=vertical;strokeWidth=4;endArrow=block;endFill=1;fontStyle=1;strokeColor=#23445D;" edge="1" parent="1" source="kN04fG0RwE7gjRR_fKHr-56" target="kN04fG0RwE7gjRR_fKHr-59">
          <mxGeometry x="22" y="165.5" width="100" height="100" as="geometry">
            <mxPoint x="22" y="265.5" as="sourcePoint" />
            <mxPoint x="122" y="165.5" as="targetPoint" />
          </mxGeometry>
        </mxCell>
        <mxCell id="kN04fG0RwE7gjRR_fKHr-64" value="Thông tin dịch vụ" style="rounded=1;fillColor=#10739E;strokeColor=none;shadow=1;gradientColor=none;fontStyle=1;fontColor=#FFFFFF;fontSize=14;" vertex="1" parent="1">
          <mxGeometry x="490" y="550" width="200" height="60" as="geometry" />
        </mxCell>
        <mxCell id="kN04fG0RwE7gjRR_fKHr-66" value="Cập nhật loại dịch vụ" style="rounded=1;fillColor=#10739E;strokeColor=none;shadow=1;gradientColor=none;fontStyle=1;fontColor=#FFFFFF;fontSize=14;" vertex="1" parent="1">
          <mxGeometry x="890" y="540" width="200" height="60" as="geometry" />
        </mxCell>
        <mxCell id="kN04fG0RwE7gjRR_fKHr-67" value="Xem thông tin/ tra cứu" style="rounded=1;fillColor=#10739E;strokeColor=none;shadow=1;gradientColor=none;fontStyle=1;fontColor=#FFFFFF;fontSize=14;" vertex="1" parent="1">
          <mxGeometry x="890" y="620" width="200" height="60" as="geometry" />
        </mxCell>
        <mxCell id="kN04fG0RwE7gjRR_fKHr-68" value="" style="edgeStyle=elbowEdgeStyle;elbow=vertical;strokeWidth=4;endArrow=block;endFill=1;fontStyle=1;strokeColor=#23445D;exitX=1;exitY=0.5;exitDx=0;exitDy=0;entryX=1;entryY=0.5;entryDx=0;entryDy=0;" edge="1" parent="1" source="kN04fG0RwE7gjRR_fKHr-59" target="kN04fG0RwE7gjRR_fKHr-66">
          <mxGeometry x="22" y="165.5" width="100" height="100" as="geometry">
            <mxPoint x="782" y="416" as="sourcePoint" />
            <mxPoint x="1000" y="466" as="targetPoint" />
            <Array as="points">
              <mxPoint x="1130" y="530" />
            </Array>
          </mxGeometry>
        </mxCell>
        <mxCell id="kN04fG0RwE7gjRR_fKHr-69" value="" style="edgeStyle=elbowEdgeStyle;elbow=vertical;strokeWidth=4;endArrow=block;endFill=1;fontStyle=1;strokeColor=#23445D;exitX=1;exitY=0.5;exitDx=0;exitDy=0;entryX=1;entryY=0.5;entryDx=0;entryDy=0;" edge="1" parent="1" source="kN04fG0RwE7gjRR_fKHr-59" target="kN04fG0RwE7gjRR_fKHr-67">
          <mxGeometry x="22" y="165.5" width="100" height="100" as="geometry">
            <mxPoint x="1100" y="496" as="sourcePoint" />
            <mxPoint x="1100" y="580" as="targetPoint" />
            <Array as="points">
              <mxPoint x="1130" y="570" />
            </Array>
          </mxGeometry>
        </mxCell>
        <mxCell id="kN04fG0RwE7gjRR_fKHr-70" value="&lt;h1&gt;Cập nhật&lt;/h1&gt;&lt;p&gt;Bao gồm các thao tác như, Thêm, Sửa, Xóa thông tin của một đối tượng nào đó.&lt;/p&gt;" style="text;html=1;strokeColor=none;fillColor=none;spacing=5;spacingTop=-20;whiteSpace=wrap;overflow=hidden;rounded=0;" vertex="1" parent="1">
          <mxGeometry x="430" y="265.5" width="190" height="120" as="geometry" />
        </mxCell>
        <mxCell id="kN04fG0RwE7gjRR_fKHr-71" value="" style="edgeStyle=elbowEdgeStyle;elbow=vertical;strokeWidth=4;endArrow=block;endFill=1;fontStyle=1;strokeColor=#23445D;exitX=0.5;exitY=1;exitDx=0;exitDy=0;entryX=0;entryY=0.5;entryDx=0;entryDy=0;" edge="1" parent="1" source="kN04fG0RwE7gjRR_fKHr-57" target="kN04fG0RwE7gjRR_fKHr-64">
          <mxGeometry x="22" y="165.5" width="100" height="100" as="geometry">
            <mxPoint x="782" y="416" as="sourcePoint" />
            <mxPoint x="470" y="466" as="targetPoint" />
            <Array as="points">
              <mxPoint x="470" y="580" />
            </Array>
          </mxGeometry>
        </mxCell>
      </root>
    </mxGraphModel>
  </diagram>
</mxfile>
